# xmcd
#
# Track frame offsets:
# 150
# 16513
# 34583
# 49922
# 67960
# 82532
# 97298
# 112456
# 130441
# 143898
# 160250
#
# Disc length: 2362 seconds
#
#
# Revision: 0
# Processed by: cddbd v1.5.2PL0 Copyright (c) Steve Scherf et al.
# Submitted via: FreeRIP 2.91 
#
DISCID=9009380b
DTITLE=Fistful of Dollars - Blue Sky Rain
DYEAR=2018
DGENRE=Country
TTITLE0=Easy with you
TTITLE1=Fine day to start living
TTITLE2=Everybody says I love you
TTITLE3=She don't know what she wants
TTITLE4=Honky tonk man
TTITLE5=Blue sky rain
TTITLE6=Good to go
TTITLE7=Let it rain
TTITLE8=The grave to the cradle
TTITLE9=Glory is coming my way
TTITLE10=Can't live without love
EXTD=
EXTT0=
EXTT1=
EXTT2=
EXTT3=
EXTT4=
EXTT5=
EXTT6=
EXTT7=
EXTT8=
EXTT9=
EXTT10=
PLAYORDER=
